<svg xmlns="http://www.w3.org/2000/svg" version="1.1" xmlns:xlink="http://www.w3.org/1999/xlink" xmlns:svgjs="http://svgjs.dev/svgjs" width="1500" height="1500" viewBox="0 0 1500 1500"><rect width="1500" height="1500" fill="#000000"></rect><g transform="matrix(0.6666666666666666,0,0,0.6666666666666666,249.39393939393938,672.2540270412196)"><svg viewBox="0 0 396 62" data-background-color="#ffffff" preserveAspectRatio="xMidYMid meet" height="234" width="1500" xmlns="http://www.w3.org/2000/svg" xmlns:xlink="http://www.w3.org/1999/xlink"><g id="tight-bounds" transform="matrix(1,0,0,1,0.2400000000000091,-0.100959465100118)"><svg viewBox="0 0 395.52 62.20191893020025" height="62.20191893020025" width="395.52"><g><svg viewBox="0 0 483.31916957212 76.00975880647431" height="62.20191893020025" width="395.52"><g transform="matrix(1,0,0,1,87.79916957212002,10.504966665728361)"><svg viewBox="0 0 395.52 54.99982547501759" height="54.99982547501759" width="395.52"><g id="textblocktransform"><svg viewBox="0 0 395.52 54.99982547501759" height="54.99982547501759" width="395.52" id="textblock"><g><svg viewBox="0 0 395.52 54.99982547501759" height="54.99982547501759" width="395.52"><g transform="matrix(1,0,0,1,0,0)"><svg width="395.52" viewBox="2 -35.74 346.9 48.24" height="54.99982547501759" data-palette-color="#024b78"><path d="M6.49 0L2 0 16.46-35.01 20.95-35.01 35.55 0 31.05 0 26.15-11.69 11.3-11.69 6.49 0ZM18.7-30.4L12.7-14.99 24.8-14.99 18.7-30.4ZM42.62-4.63Q37.25-10.01 37.25-17.5 37.25-25 42.62-30.37 48-35.74 55.49-35.74L55.49-35.74Q61.59-35.74 66.6-31.96L66.6-31.96 63.69-29.05Q59.89-31.96 55.49-31.96L55.49-31.96Q49.8-31.96 45.77-27.71 41.75-23.46 41.75-17.5 41.75-11.55 45.77-7.3 49.8-3.05 55.49-3.05L55.49-3.05Q59.98-3.05 63.69-5.91L63.69-5.91 66.6-3Q61.55 0.76 55.49 0.76L55.49 0.76Q48 0.76 42.62-4.63ZM77.05 0L72.55 0 72.55-35.01 77.05-35.01 87.79-19.56 98.55-35.01 103.05-35.01 103.05 0 98.55 0 98.55-28 89.5-15.41 86.05-15.41 77.05-27.95 77.05 0ZM133.95 0L111.64 0 111.64-35.01 133.95-35.01 133.95-31.81 116.13-31.81 116.13-20.7 130.95-20.7 130.95-17.5 116.13-17.5 116.13-3.2 133.95-3.2 133.95 0ZM156.36 0L151.87 0 151.87-35.01 163.98-35.01Q168.98-35.01 172.52-31.58 176.06-28.15 176.06-23.35 176.06-18.55 172.52-15.15 168.98-11.74 163.98-11.74L163.98-11.74 156.36-11.74 156.36 0ZM156.36-31.69L156.36-15.04 163.98-15.04Q167.13-15.04 169.35-17.47 171.57-19.9 171.57-23.35 171.57-26.81 169.35-29.25 167.13-31.69 163.98-31.69L163.98-31.69 156.36-31.69ZM186.7 0L182.55 0 182.55-25 185.56-25 186.17-23.24Q189.36-25.68 191.86-25.71L191.86-25.71Q194.57-25.71 196.86-24.51L196.86-24.51 195.22-21.14Q193.08-21.9 191.27-21.9L191.27-21.9Q188.78-21.9 186.7-20.04L186.7-20.04 186.7 0ZM203.28-3.08Q199.59-6.91 199.59-12.5 199.59-18.09 203.29-21.92 206.99-25.76 212.78-25.76L212.78-25.76Q218.54-25.76 222.28-21.9 226.03-18.04 226.03-12.5 226.03-6.96 222.28-3.1 218.54 0.76 212.78 0.76L212.78 0.76Q206.96 0.76 203.28-3.08ZM206.12-19.23Q203.62-16.5 203.62-12.5 203.62-8.5 206.12-5.77 208.63-3.05 212.78-3.05L212.78-3.05Q216.88-3.05 219.4-5.77 221.93-8.5 221.93-12.5 221.93-16.5 219.4-19.23 216.88-21.95 212.78-21.95L212.78-21.95Q208.63-21.95 206.12-19.23ZM236.09 12.5L231.94 12.5 231.94-25 234.62-25 235.28-23.61Q239.68-25.76 243.27-25.76L243.27-25.76Q246.71-25.76 249.22-23.75 251.74-21.75 252.84-18.85 253.94-15.94 253.94-12.65L253.94-12.65Q253.94-6.88 251.03-3.06 248.12 0.76 242.83 0.76L242.83 0.76Q239.29 0.76 236.09-0.9L236.09-0.9 236.09 12.5ZM236.09-20.75L236.09-4.1Q238.48-2.86 242.12-2.86L242.12-2.86Q244.98-2.86 246.75-4.41 248.52-5.96 249.13-8.11 249.74-10.25 249.74-13.11L249.74-13.11Q249.74-17.16 247.78-19.75 245.83-22.34 242.92-22.34L242.92-22.34Q239.92-22.34 236.09-20.75L236.09-20.75ZM259.33-12.6L259.33-12.6Q259.33-18.6 262.53-22.18 265.72-25.76 270.97-25.76L270.97-25.76Q281.42-25.76 281.42-11.01L281.42-11.01 263.48-11.01Q263.72-7.91 265.75-5.48 267.78-3.05 271.93-3.05L271.93-3.05Q276.74-3.05 280.18-4.64L280.18-4.64 280.18-0.71Q276.42 0.73 272.46 0.76L272.46 0.76Q269.02 0.76 266.44-0.32 263.87-1.39 262.34-3.27 260.82-5.15 260.07-7.5 259.33-9.84 259.33-12.6ZM263.62-14.31L263.62-14.31 277.13-14.31Q276.78-17.65 275.27-19.8 273.76-21.95 270.88-21.95L270.88-21.95Q268.02-21.95 266.02-19.85 264.02-17.75 263.62-14.31ZM291.16 0L287.01 0 287.01-25 290.01-25 290.62-23.24Q293.82-25.68 296.31-25.71L296.31-25.71Q299.02-25.71 301.32-24.51L301.32-24.51 299.68-21.14Q297.53-21.9 295.73-21.9L295.73-21.9Q293.24-21.9 291.16-20.04L291.16-20.04 291.16 0ZM310.15-21.14L305.91-21.14 305.91-25 310.15-25 310.15-32.25 314.4-32.25 314.4-25 320.6-25 320.6-21.14 314.4-21.14 314.4-7.35Q314.4-5.49 314.97-4.68 315.55-3.86 317.5-3.86L317.5-3.86 320.09-3.86 320.09 0 315.6 0Q313.16 0 311.65-1.29 310.15-2.59 310.15-4.81L310.15-4.81 310.15-21.14ZM335.13-1.25L325.58-25 330.34-25 337.18-6.69 344.18-25 348.9-25 334.49 12.5 329.78 12.5 335.13-1.25Z" opacity="1" transform="matrix(1,0,0,1,0,0)" fill="#ffffff" class="wordmark-text-0" data-fill-palette-color="primary" id="text-0"></path></svg></g></svg></g></svg></g></svg></g><g><svg viewBox="0 0 74.81503077327977 76.00975880647431" height="76.00975880647431" width="74.81503077327977"><g><svg xmlns="http://www.w3.org/2000/svg" xmlns:xlink="http://www.w3.org/1999/xlink" version="1.1" x="8" y="0" viewBox="12.983 1 75.68599999999999 97.813" enable-background="new 0 0 100 100" xml:space="preserve" height="76.00975880647431" width="58.815030773279766" class="icon-icon-0" data-fill-palette-color="accent" id="icon-0"><g fill="#024b78" data-fill-palette-color="accent"><polygon fill-rule="evenodd" clip-rule="evenodd" points="12.983,10.59 30.001,98.813 24.129,39.764 53.15,37.872 53.096,27.989    64.549,1 53.622,18.977  " fill="#ffffff" data-fill-palette-color="accent"></polygon><polygon fill-rule="evenodd" clip-rule="evenodd" points="59.389,54.548 64.549,1.007 55.809,40.723 36.197,41.768 37.767,62.23    30.001,98.813 42.058,58.914  " fill="#ffffff" data-fill-palette-color="accent"></polygon><polygon fill-rule="evenodd" clip-rule="evenodd" points="62.8,67.182 63.349,56.729 47.37,60.484 47.338,72.281 30.001,98.813    51.681,71.197  " fill="#ffffff" data-fill-palette-color="accent"></polygon><polygon fill-rule="evenodd" clip-rule="evenodd" points="65.711,62.394 80.552,57.663 82.061,45.131 66.162,47.226  " fill="#ffffff" data-fill-palette-color="accent"></polygon><polygon fill-rule="evenodd" clip-rule="evenodd" points="72.07,44.502 83.058,43.085 84.639,32.807 76.56,32.434 64.549,1    72.979,31.967  " fill="#ffffff" data-fill-palette-color="accent"></polygon><polygon fill-rule="evenodd" clip-rule="evenodd" points="87.413,31.294 88.669,21.788 79.125,19.094 64.549,1 79.032,23.437    78.61,30.437  " fill="#ffffff" data-fill-palette-color="accent"></polygon></g></svg></g></svg></g></svg></g><defs></defs></svg><rect width="395.52" height="62.20191893020025" fill="none" stroke="none" visibility="hidden"></rect></g></svg></g></svg>